<svg xmlns="http://www.w3.org/2000/svg" width="18" height="18" fill="none"><path fill="#000" d="M9.563 16.5H8.437V15h1.126zm5.137-2.596-.397.399-.399.397-1.056-1.057.795-.795zM12.32 7.71a3.563 3.563 0 0 1-4.61 4.61l.913-.914q.185.032.377.033A2.437 2.437 0 0 0 11.438 9c0-.128-.014-.254-.033-.377zm4.18 1.854H15V8.437h1.5z"/><path stroke="#000" d="M2 16 16 2"/><path fill="#000" d="M8.86 2.584a4.69 4.69 0 0 0-.28 5.148l-.816.817a5.81 5.81 0 0 1-.455-5.522 6.19 6.19 0 0 0-3.417 9.393l-.807.809a7.31 7.31 0 0 1 5.271-11.54l1.251-.115z"/></svg>