<svg xmlns="http://www.w3.org/2000/svg" width="176" height="176" viewBox="0 0 176 176" fill="none">
  <path d="M95.9268 78.1683C99.3594 79.0632 102 80.0599 105 81.0599C108 82.0599 109.5 82.6873 114 84.5599C118.5 86.4325 122.5 88.0599 128.5 91.0599C135.5 91.0599 161 91.0599 161 91.0599C167.627 91.0599 173 96.4325 173 103.06V161.06C173 167.687 167.627 173.06 161 173.06H103C96.3726 173.06 91 167.687 91 161.06V137.443C94.8837 137.017 98.4787 136.137 101.784 134.801C106.633 132.798 110.473 130.028 113.305 126.492C116.137 122.912 117.553 118.736 117.553 113.963C117.553 109.617 116.33 106.08 113.884 103.353C111.438 100.626 108.22 98.409 104.229 96.7044C101.531 95.5519 98.6848 94.5008 95.6924 93.5433C94.2593 93.0848 92.7935 92.6447 91.293 92.2308L91 92.1468V76.8509L95.9268 78.1683Z" fill="#050609"/>
  <path fill-rule="evenodd" clip-rule="evenodd" d="M80.5625 93.7445C83.2694 95.9447 85 99.2997 85 103.06V161.06C85 167.687 79.6274 173.06 73 173.06H15L14.6904 173.056C8.20608 172.892 3 167.584 3 161.06V103.06C3 96.536 8.20608 91.228 14.6904 91.0638L15 91.0599H71.1787L80.5625 93.7445ZM15 94.0599C10.0294 94.0599 6 98.0893 6 103.06V161.06C6 166.03 10.0294 170.06 15 170.06H73C77.9706 170.06 82 166.03 82 161.06V103.06C82 98.0893 77.9706 94.0599 73 94.0599H15Z" fill="#050609"/>
  <path d="M161 3.05991C167.627 3.05991 173 8.43249 173 15.0599V73.0599C173 79.6873 167.627 85.0599 161 85.0599H128.59C125.801 83.63 122.956 82.3713 120.053 81.2845C113.413 78.7735 107.384 76.8054 101.964 75.3802L91 72.4232V15.0599C91 8.43249 96.3726 3.05991 103 3.05991H161Z" fill="#E8823C"/>
  <path d="M73 3.05991C79.6274 3.05991 85 8.43249 85 15.0599V32.1341C79.6385 32.2495 74.9136 33.1834 70.8252 34.9349C66.4915 36.8099 63.102 39.3881 60.6562 42.6693C58.2534 45.9505 57.0518 49.6797 57.0518 53.8558C57.0518 57.3499 57.8882 60.3544 59.5615 62.8685C61.2779 65.34 63.4667 67.4068 66.127 69.0687C68.7872 70.6879 71.5765 72.0298 74.4941 73.0951C77.4118 74.1177 80.0934 74.949 82.5391 75.5882L85 76.2455V91.4447L75.0732 88.6283C71.4525 87.5945 68.5 87.0599 64 86.5599C59.5 86.0599 15 85.0599 15 85.0599C8.37258 85.0599 3 79.6873 3 73.0599V15.0599C3 8.43249 8.37258 3.05991 15 3.05991H73Z" fill="#050609"/>
</svg>
