<svg width="794" height="177" viewBox="0 0 794 177" fill="none" xmlns="http://www.w3.org/2000/svg">
<path d="M270.818 74.0909L253.091 75.1818C252.788 73.6667 252.136 72.303 251.136 71.0909C250.136 69.8485 248.818 68.8636 247.182 68.1364C245.576 67.3788 243.652 67 241.409 67C238.409 67 235.879 67.6364 233.818 68.9091C231.758 70.1515 230.727 71.8182 230.727 73.9091C230.727 75.5758 231.394 76.9848 232.727 78.1364C234.061 79.2879 236.348 80.2121 239.591 80.9091L252.227 83.4545C259.015 84.8485 264.076 87.0909 267.409 90.1818C270.742 93.2727 272.409 97.3333 272.409 102.364C272.409 106.939 271.061 110.955 268.364 114.409C265.697 117.864 262.03 120.561 257.364 122.5C252.727 124.409 247.379 125.364 241.318 125.364C232.076 125.364 224.712 123.439 219.227 119.591C213.773 115.712 210.576 110.439 209.636 103.773L228.682 102.773C229.258 105.591 230.652 107.742 232.864 109.227C235.076 110.682 237.909 111.409 241.364 111.409C244.758 111.409 247.485 110.758 249.545 109.455C251.636 108.121 252.697 106.409 252.727 104.318C252.697 102.561 251.955 101.121 250.5 100C249.045 98.8485 246.803 97.9697 243.773 97.3636L231.682 94.9545C224.864 93.5909 219.788 91.2273 216.455 87.8636C213.152 84.5 211.5 80.2121 211.5 75C211.5 70.5151 212.712 66.6515 215.136 63.4091C217.591 60.1667 221.03 57.6667 225.455 55.9091C229.909 54.1515 235.121 53.2727 241.091 53.2727C249.909 53.2727 256.848 55.1364 261.909 58.8636C267 62.5909 269.97 67.6667 270.818 74.0909ZM330.739 150.182V112.818H330.148C329.239 114.758 327.951 116.682 326.284 118.591C324.648 120.47 322.511 122.03 319.875 123.273C317.269 124.515 314.087 125.136 310.33 125.136C305.027 125.136 300.223 123.773 295.92 121.045C291.648 118.288 288.254 114.242 285.739 108.909C283.254 103.545 282.011 96.9697 282.011 89.1818C282.011 81.1818 283.299 74.5303 285.875 69.2273C288.451 63.8939 291.875 59.9091 296.148 57.2727C300.451 54.6061 305.163 53.2727 310.284 53.2727C314.193 53.2727 317.451 53.9394 320.057 55.2727C322.693 56.5758 324.814 58.2121 326.42 60.1818C328.057 62.1212 329.299 64.0303 330.148 65.9091H330.966V54.1818H350.057V150.182H330.739ZM316.466 109.727C319.587 109.727 322.223 108.879 324.375 107.182C326.557 105.455 328.223 103.045 329.375 99.9545C330.557 96.8636 331.148 93.2424 331.148 89.0909C331.148 84.9394 330.572 81.3333 329.42 78.2727C328.269 75.2121 326.602 72.8485 324.42 71.1818C322.239 69.5151 319.587 68.6818 316.466 68.6818C313.284 68.6818 310.602 69.5455 308.42 71.2727C306.239 73 304.587 75.3939 303.466 78.4545C302.345 81.5151 301.784 85.0606 301.784 89.0909C301.784 93.1515 302.345 96.7424 303.466 99.8636C304.617 102.955 306.269 105.379 308.42 107.136C310.602 108.864 313.284 109.727 316.466 109.727ZM410.375 94.2727V54.1818H429.739V124H411.148V111.318H410.42C408.845 115.409 406.223 118.697 402.557 121.182C398.92 123.667 394.481 124.909 389.239 124.909C384.572 124.909 380.466 123.848 376.92 121.727C373.375 119.606 370.602 116.591 368.602 112.682C366.633 108.773 365.633 104.091 365.602 98.6364V54.1818H384.966V95.1818C384.996 99.303 386.102 102.561 388.284 104.955C390.466 107.348 393.39 108.545 397.057 108.545C399.39 108.545 401.572 108.015 403.602 106.955C405.633 105.864 407.269 104.258 408.511 102.136C409.784 100.015 410.405 97.3939 410.375 94.2727ZM465.136 125.318C460.682 125.318 456.712 124.545 453.227 123C449.742 121.424 446.985 119.106 444.955 116.045C442.955 112.955 441.955 109.106 441.955 104.5C441.955 100.621 442.667 97.3636 444.091 94.7273C445.515 92.0909 447.455 89.9697 449.909 88.3636C452.364 86.7576 455.152 85.5455 458.273 84.7273C461.424 83.9091 464.727 83.3333 468.182 83C472.242 82.5758 475.515 82.1818 478 81.8182C480.485 81.4242 482.288 80.8485 483.409 80.0909C484.53 79.3333 485.091 78.2121 485.091 76.7273V76.4545C485.091 73.5758 484.182 71.3485 482.364 69.7727C480.576 68.197 478.03 67.4091 474.727 67.4091C471.242 67.4091 468.47 68.1818 466.409 69.7273C464.348 71.2424 462.985 73.1515 462.318 75.4545L444.409 74C445.318 69.7576 447.106 66.0909 449.773 63C452.439 59.8788 455.879 57.4848 460.091 55.8182C464.333 54.1212 469.242 53.2727 474.818 53.2727C478.697 53.2727 482.409 53.7273 485.955 54.6364C489.53 55.5455 492.697 56.9545 495.455 58.8636C498.242 60.7727 500.439 63.2273 502.045 66.2273C503.652 69.197 504.455 72.7576 504.455 76.9091V124H486.091V114.318H485.545C484.424 116.5 482.924 118.424 481.045 120.091C479.167 121.727 476.909 123.015 474.273 123.955C471.636 124.864 468.591 125.318 465.136 125.318ZM470.682 111.955C473.53 111.955 476.045 111.394 478.227 110.273C480.409 109.121 482.121 107.576 483.364 105.636C484.606 103.697 485.227 101.5 485.227 99.0455V91.6364C484.621 92.0303 483.788 92.3939 482.727 92.7273C481.697 93.0303 480.53 93.3182 479.227 93.5909C477.924 93.8333 476.621 94.0606 475.318 94.2727C474.015 94.4545 472.833 94.6212 471.773 94.7727C469.5 95.1061 467.515 95.6364 465.818 96.3636C464.121 97.0909 462.803 98.0758 461.864 99.3182C460.924 100.53 460.455 102.045 460.455 103.864C460.455 106.5 461.409 108.515 463.318 109.909C465.258 111.273 467.712 111.955 470.682 111.955ZM545.205 125.136C539.902 125.136 535.098 123.773 530.795 121.045C526.523 118.288 523.129 114.242 520.614 108.909C518.129 103.545 516.886 96.9697 516.886 89.1818C516.886 81.1818 518.174 74.5303 520.75 69.2273C523.326 63.8939 526.75 59.9091 531.023 57.2727C535.326 54.6061 540.038 53.2727 545.159 53.2727C549.068 53.2727 552.326 53.9394 554.932 55.2727C557.568 56.5758 559.689 58.2121 561.295 60.1818C562.932 62.1212 564.174 64.0303 565.023 65.9091H565.614V30.9091H584.932V124H565.841V112.818H565.023C564.114 114.758 562.826 116.682 561.159 118.591C559.523 120.47 557.386 122.03 554.75 123.273C552.144 124.515 548.962 125.136 545.205 125.136ZM551.341 109.727C554.462 109.727 557.098 108.879 559.25 107.182C561.432 105.455 563.098 103.045 564.25 99.9545C565.432 96.8636 566.023 93.2424 566.023 89.0909C566.023 84.9394 565.447 81.3333 564.295 78.2727C563.144 75.2121 561.477 72.8485 559.295 71.1818C557.114 69.5151 554.462 68.6818 551.341 68.6818C548.159 68.6818 545.477 69.5455 543.295 71.2727C541.114 73 539.462 75.3939 538.341 78.4545C537.22 81.5151 536.659 85.0606 536.659 89.0909C536.659 93.1515 537.22 96.7424 538.341 99.8636C539.492 102.955 541.144 105.379 543.295 107.136C545.477 108.864 548.159 109.727 551.341 109.727Z" fill="white"/>
<path d="M607.727 124V54.1818H626.182V66.5H627C628.455 62.4091 630.879 59.1818 634.273 56.8182C637.667 54.4545 641.727 53.2727 646.455 53.2727C651.242 53.2727 655.318 54.4697 658.682 56.8636C662.045 59.2273 664.288 62.4394 665.409 66.5H666.136C667.561 62.5 670.136 59.303 673.864 56.9091C677.621 54.4848 682.061 53.2727 687.182 53.2727C693.697 53.2727 698.985 55.3485 703.045 59.5C707.136 63.6212 709.182 69.4697 709.182 77.0455V124H689.864V80.8636C689.864 76.9848 688.833 74.0758 686.773 72.1364C684.712 70.197 682.136 69.2273 679.045 69.2273C675.53 69.2273 672.788 70.3485 670.818 72.5909C668.848 74.803 667.864 77.7273 667.864 81.3636V124H649.091V80.4545C649.091 77.0303 648.106 74.303 646.136 72.2727C644.197 70.2424 641.636 69.2273 638.455 69.2273C636.303 69.2273 634.364 69.7727 632.636 70.8636C630.939 71.9242 629.591 73.4242 628.591 75.3636C627.591 77.2727 627.091 79.5152 627.091 82.0909V124H607.727ZM756.295 125.364C749.114 125.364 742.932 123.909 737.75 121C732.598 118.061 728.629 113.909 725.841 108.545C723.053 103.152 721.659 96.7727 721.659 89.4091C721.659 82.2273 723.053 75.9242 725.841 70.5C728.629 65.0758 732.553 60.8485 737.614 57.8182C742.705 54.7879 748.674 53.2727 755.523 53.2727C760.129 53.2727 764.417 54.0152 768.386 55.5C772.386 56.9545 775.871 59.1515 778.841 62.0909C781.841 65.0303 784.174 68.7273 785.841 73.1818C787.508 77.6061 788.341 82.7879 788.341 88.7273V94.0455H729.386V82.0455H770.114C770.114 79.2576 769.508 76.7879 768.295 74.6364C767.083 72.4848 765.402 70.803 763.25 69.5909C761.129 68.3485 758.659 67.7273 755.841 67.7273C752.902 67.7273 750.295 68.4091 748.023 69.7727C745.78 71.1061 744.023 72.9091 742.75 75.1818C741.477 77.4242 740.826 79.9242 740.795 82.6818V94.0909C740.795 97.5455 741.432 100.53 742.705 103.045C744.008 105.561 745.841 107.5 748.205 108.864C750.568 110.227 753.371 110.909 756.614 110.909C758.765 110.909 760.735 110.606 762.523 110C764.311 109.394 765.841 108.485 767.114 107.273C768.386 106.061 769.356 104.576 770.023 102.818L787.932 104C787.023 108.303 785.159 112.061 782.341 115.273C779.553 118.455 775.947 120.939 771.523 122.727C767.129 124.485 762.053 125.364 756.295 125.364Z" fill="#E8823C"/>
<path d="M95.9268 78.1683C99.3594 79.0632 102 80.0599 105 81.0599C108 82.0599 109.5 82.6873 114 84.5599C118.5 86.4325 122.5 88.0599 128.5 91.0599C135.5 91.0599 161 91.0599 161 91.0599C167.627 91.0599 173 96.4325 173 103.06V161.06C173 167.687 167.627 173.06 161 173.06H103C96.3726 173.06 91 167.687 91 161.06V137.443C94.8837 137.017 98.4787 136.137 101.784 134.801C106.633 132.798 110.473 130.028 113.305 126.492C116.137 122.912 117.553 118.736 117.553 113.963C117.553 109.617 116.33 106.08 113.884 103.353C111.438 100.626 108.22 98.409 104.229 96.7044C101.531 95.5519 98.6848 94.5008 95.6924 93.5433C94.2593 93.0848 92.7935 92.6447 91.293 92.2308L91 92.1468V76.8509L95.9268 78.1683Z" fill="white"/>
<path fill-rule="evenodd" clip-rule="evenodd" d="M80.5625 93.7445C83.2694 95.9447 85 99.2997 85 103.06V161.06C85 167.687 79.6274 173.06 73 173.06H15L14.6904 173.056C8.20608 172.892 3 167.584 3 161.06V103.06C3 96.536 8.20608 91.228 14.6904 91.0638L15 91.0599H71.1787L80.5625 93.7445ZM15 94.0599C10.0294 94.0599 6 98.0893 6 103.06V161.06C6 166.03 10.0294 170.06 15 170.06H73C77.9706 170.06 82 166.03 82 161.06V103.06C82 98.0893 77.9706 94.0599 73 94.0599H15Z" fill="white"/>
<path d="M161 3.05991C167.627 3.05991 173 8.43249 173 15.0599V73.0599C173 79.6873 167.627 85.0599 161 85.0599H128.59C125.801 83.63 122.956 82.3713 120.053 81.2845C113.413 78.7735 107.384 76.8054 101.964 75.3802L91 72.4232V15.0599C91 8.43249 96.3726 3.05991 103 3.05991H161Z" fill="#E8823C"/>
<path d="M73 3.05991C79.6274 3.05991 85 8.43249 85 15.0599V32.1341C79.6385 32.2495 74.9136 33.1834 70.8252 34.9349C66.4915 36.8099 63.102 39.3881 60.6562 42.6693C58.2534 45.9505 57.0518 49.6797 57.0518 53.8558C57.0518 57.3499 57.8882 60.3544 59.5615 62.8685C61.2779 65.34 63.4667 67.4068 66.127 69.0687C68.7872 70.6879 71.5765 72.0298 74.4941 73.0951C77.4118 74.1177 80.0934 74.949 82.5391 75.5882L85 76.2455V91.4447L75.0732 88.6283C71.4525 87.5945 68.5 87.0599 64 86.5599C59.5 86.0599 15 85.0599 15 85.0599C8.37258 85.0599 3 79.6873 3 73.0599V15.0599C3 8.43249 8.37258 3.05991 15 3.05991H73Z" fill="white"/>
</svg>
